{"accessors" : [{"bufferView" : 0, "byteOffset" : 0, "componentType" : 5123, "count" : 5808, "type" : "SCALAR", "max" : [4993], "min" : [0]}, {"bufferView" : 1, "byteOffset" : 0, "componentType" : 5126, "count" : 4994, "type" : "VEC3", "max" : [1.579546332359314, 2.713517189025879, 0.7778663635253906], "min" : [-0.45545053482055664, -0.01254395954310894, -1.2023061513900757], "name" : "POSITION"}, {"bufferView" : 1, "byteOffset" : 12, "componentType" : 5126, "count" : 4994, "type" : "VEC3", "max" : [0.9986684322357178, 0.9964792728424072, 0.9983457922935486], "min" : [-0.999286949634552, -0.9999845027923584, -0.9988089799880981], "name" : "NORMAL"}, {"bufferView" : 1, "byteOffset" : 24, "componentType" : 5126, "count" : 4994, "type" : "VEC2", "max" : [0.4965549111366272, 0.7277082204818726], "min" : [0.47834503650665283, 0.390278160572052], "name" : "TEXCOORD_0"}, {"bufferView" : 0, "byteOffset" : 11616, "componentType" : 5123, "count" : 5220, "type" : "SCALAR", "max" : [4489], "min" : [0]}, {"bufferView" : 2, "byteOffset" : 0, "componentType" : 5126, "count" : 4490, "type" : "VEC3", "max" : [0.2524451017379761, 2.0541679859161377, 0.7029966115951538], "min" : [-1.4833308458328247, 0.016301607713103294, -1.1896789073944092], "name" : "POSITION"}, {"bufferView" : 2, "byteOffset" : 12, "componentType" : 5126, "count" : 4490, "type" : "VEC3", "max" : [0.9996667504310608, 0.9998841881752014, 0.9997917413711548], "min" : [-0.994814395904541, -0.999921441078186, -0.9989734292030334], "name" : "NORMAL"}, {"bufferView" : 2, "byteOffset" : 24, "componentType" : 5126, "count" : 4490, "type" : "VEC2", "max" : [0.4965549111366272, 0.7365514039993286], "min" : [0.4705016613006592, 0.390278160572052], "name" : "TEXCOORD_0"}, {"bufferView" : 0, "byteOffset" : 22056, "componentType" : 5123, "count" : 468, "type" : "SCALAR", "max" : [400], "min" : [0]}, {"bufferView" : 3, "byteOffset" : 0, "componentType" : 5126, "count" : 401, "type" : "VEC3", "max" : [0.9678194522857666, 1, 0.9465980529785156], "min" : [-0.9678193926811218, -1, -0.9749279022216797], "name" : "POSITION"}, {"bufferView" : 3, "byteOffset" : 12, "componentType" : 5126, "count" : 401, "type" : "VEC3", "max" : [0.9693889021873474, 1.0000044107437134, 0.9481331706047058], "min" : [-0.9693889021873474, -1.0000042915344238, -0.9765086770057678], "name" : "NORMAL"}, {"bufferView" : 3, "byteOffset" : 24, "componentType" : 5126, "count" : 401, "type" : "VEC2", "max" : [1, 1], "min" : [0, 0], "name" : "TEXCOORD_0"}, {"bufferView" : 0, "byteOffset" : 22992, "componentType" : 5123, "count" : 468, "type" : "SCALAR", "max" : [400], "min" : [0]}, {"bufferView" : 4, "byteOffset" : 0, "componentType" : 5126, "count" : 401, "type" : "VEC3", "max" : [0.9678194522857666, 1, 0.9465980529785156], "min" : [-0.9678193926811218, -1, -0.9749279022216797], "name" : "POSITION"}, {"bufferView" : 4, "byteOffset" : 12, "componentType" : 5126, "count" : 401, "type" : "VEC3", "max" : [0.9693889021873474, 1.0000044107437134, 0.9481331706047058], "min" : [-0.9693889021873474, -1.0000042915344238, -0.9765086770057678], "name" : "NORMAL"}, {"bufferView" : 4, "byteOffset" : 24, "componentType" : 5126, "count" : 401, "type" : "VEC2", "max" : [1, 1], "min" : [0, 0], "name" : "TEXCOORD_0"}, {"bufferView" : 0, "byteOffset" : 23928, "componentType" : 5123, "count" : 468, "type" : "SCALAR", "max" : [400], "min" : [0]}, {"bufferView" : 5, "byteOffset" : 0, "componentType" : 5126, "count" : 401, "type" : "VEC3", "max" : [0.9678194522857666, 1, 0.9465980529785156], "min" : [-0.9678193926811218, -1, -0.9749279022216797], "name" : "POSITION"}, {"bufferView" : 5, "byteOffset" : 12, "componentType" : 5126, "count" : 401, "type" : "VEC3", "max" : [0.9693889021873474, 1.0000044107437134, 0.9481331706047058], "min" : [-0.9693889021873474, -1.0000042915344238, -0.9765086770057678], "name" : "NORMAL"}, {"bufferView" : 5, "byteOffset" : 24, "componentType" : 5126, "count" : 401, "type" : "VEC2", "max" : [1, 1], "min" : [0, 0], "name" : "TEXCOORD_0"}, {"bufferView" : 0, "byteOffset" : 24864, "componentType" : 5123, "count" : 468, "type" : "SCALAR", "max" : [400], "min" : [0]}, {"bufferView" : 6, "byteOffset" : 0, "componentType" : 5126, "count" : 401, "type" : "VEC3", "max" : [0.9678194522857666, 1, 0.9465980529785156], "min" : [-0.9678193926811218, -1, -0.9749279022216797], "name" : "POSITION"}, {"bufferView" : 6, "byteOffset" : 12, "componentType" : 5126, "count" : 401, "type" : "VEC3", "max" : [0.9693889021873474, 1.0000044107437134, 0.9481331706047058], "min" : [-0.9693889021873474, -1.0000042915344238, -0.9765086770057678], "name" : "NORMAL"}, {"bufferView" : 6, "byteOffset" : 24, "componentType" : 5126, "count" : 401, "type" : "VEC2", "max" : [1, 1], "min" : [0, 0], "name" : "TEXCOORD_0"}, {"bufferView" : 0, "byteOffset" : 25800, "componentType" : 5123, "count" : 468, "type" : "SCALAR", "max" : [400], "min" : [0]}, {"bufferView" : 7, "byteOffset" : 0, "componentType" : 5126, "count" : 401, "type" : "VEC3", "max" : [0.9678194522857666, 1, 0.9465980529785156], "min" : [-0.9678193926811218, -1, -0.9749279022216797], "name" : "POSITION"}, {"bufferView" : 7, "byteOffset" : 12, "componentType" : 5126, "count" : 401, "type" : "VEC3", "max" : [0.9693889021873474, 1.0000044107437134, 0.9481331706047058], "min" : [-0.9693889021873474, -1.0000042915344238, -0.9765086770057678], "name" : "NORMAL"}, {"bufferView" : 7, "byteOffset" : 24, "componentType" : 5126, "count" : 401, "type" : "VEC2", "max" : [1, 1], "min" : [0, 0], "name" : "TEXCOORD_0"}], "asset" : {"generator" : "Aspose.3D 22.12", "version" : "2.0"}, "buffers" : [{"uri" : "data:application/octet-stream;base64,", "byteLength" : 454544}], "bufferViews" : [{"buffer" : 0, "byteOffset" : 0, "byteLength" : 26736, "target" : 34963}, {"buffer" : 0, "byteOffset" : 26740, "byteLength" : 185856, "byteStride" : 32, "target" : 34962}, {"buffer" : 0, "byteOffset" : 212600, "byteLength" : 167040, "byteStride" : 32, "target" : 34962}, {"buffer" : 0, "byteOffset" : 379644, "byteLength" : 14976, "byteStride" : 32, "target" : 34962}, {"buffer" : 0, "byteOffset" : 394624, "byteLength" : 14976, "byteStride" : 32, "target" : 34962}, {"buffer" : 0, "byteOffset" : 409604, "byteLength" : 14976, "byteStride" : 32, "target" : 34962}, {"buffer" : 0, "byteOffset" : 424584, "byteLength" : 14976, "byteStride" : 32, "target" : 34962}, {"buffer" : 0, "byteOffset" : 439564, "byteLength" : 14976, "byteStride" : 32, "target" : 34962}], "images" : [{"uri" : "data:image/png;base64,"}], "materials" : [{"name" : "1texture.001", "pbrMetallicRoughness" : {"baseColorFactor" : [1, 1, 1, 1], "baseColorTexture" : {"index" : 0, "texCoord" : 0}, "metallicFactor" : 0, "roughnessFactor" : 1}, "emissiveFactor" : [0, 0, 0], "alphaMode" : "OPAQUE", "doubleSided" : true}, {"name" : "1texture.001", "pbrMetallicRoughness" : {"baseColorFactor" : [1, 1, 1, 1], "baseColorTexture" : {"index" : 0, "texCoord" : 0}, "metallicFactor" : 0, "roughnessFactor" : 1}, "emissiveFactor" : [0, 0, 0], "alphaMode" : "OPAQUE", "doubleSided" : true}, {"name" : "marron2", "pbrMetallicRoughness" : {"baseColorFactor" : [0.3111022114753723, 0.050272054970264435, 0.0030700387433171272, 1], "metallicFactor" : 0, "roughnessFactor" : 0}, "emissiveFactor" : [0, 0, 0], "alphaMode" : "OPAQUE", "doubleSided" : true}, {"name" : "marron2", "pbrMetallicRoughness" : {"baseColorFactor" : [0.3111022114753723, 0.050272054970264435, 0.0030700387433171272, 1], "metallicFactor" : 0, "roughnessFactor" : 0}, "emissiveFactor" : [0, 0, 0], "alphaMode" : "OPAQUE", "doubleSided" : true}, {"name" : "marron2", "pbrMetallicRoughness" : {"baseColorFactor" : [0.3111022114753723, 0.050272054970264435, 0.0030700387433171272, 1], "metallicFactor" : 0, "roughnessFactor" : 0}, "emissiveFactor" : [0, 0, 0], "alphaMode" : "OPAQUE", "doubleSided" : true}, {"name" : "marron2", "pbrMetallicRoughness" : {"baseColorFactor" : [0.3111022114753723, 0.050272054970264435, 0.0030700387433171272, 1], "metallicFactor" : 0, "roughnessFactor" : 0}, "emissiveFactor" : [0, 0, 0], "alphaMode" : "OPAQUE", "doubleSided" : true}, {"name" : "marron2", "pbrMetallicRoughness" : {"baseColorFactor" : [0.3111022114753723, 0.050272054970264435, 0.0030700387433171272, 1], "metallicFactor" : 0, "roughnessFactor" : 0}, "emissiveFactor" : [0, 0, 0], "alphaMode" : "OPAQUE", "doubleSided" : true}], "meshes" : [{"primitives" : [{"attributes" : {"POSITION" : 1, "NORMAL" : 2, "TEXCOORD_0" : 3}, "indices" : 0, "material" : 0, "mode" : 4}]}, {"primitives" : [{"attributes" : {"POSITION" : 5, "NORMAL" : 6, "TEXCOORD_0" : 7}, "indices" : 4, "material" : 1, "mode" : 4}]}, {"primitives" : [{"attributes" : {"POSITION" : 9, "NORMAL" : 10, "TEXCOORD_0" : 11}, "indices" : 8, "material" : 2, "mode" : 4}]}, {"primitives" : [{"attributes" : {"POSITION" : 13, "NORMAL" : 14, "TEXCOORD_0" : 15}, "indices" : 12, "material" : 3, "mode" : 4}]}, {"primitives" : [{"attributes" : {"POSITION" : 17, "NORMAL" : 18, "TEXCOORD_0" : 19}, "indices" : 16, "material" : 4, "mode" : 4}]}, {"primitives" : [{"attributes" : {"POSITION" : 21, "NORMAL" : 22, "TEXCOORD_0" : 23}, "indices" : 20, "material" : 5, "mode" : 4}]}, {"primitives" : [{"attributes" : {"POSITION" : 25, "NORMAL" : 26, "TEXCOORD_0" : 27}, "indices" : 24, "material" : 6, "mode" : 4}]}], "nodes" : [{"mesh" : 0, "name" : "palmera2Mesh"}, {"children" : [0], "matrix" : [-0.19022014669991416, -0.3175588840723741, 0.41491427255730595, 0, -0.13234180610264765, 0.45644008828862964, 0.28866813334828123, 0, -0.5054534051547571, -1.8587040186061288E-08, -0.231728414492455, 0, 0.1384296417236328, 0.1487215757369995, 0.1442582607269287, 1], "name" : "palmera2Armature"}, {"mesh" : 1, "name" : "palmera1Mesh"}, {"children" : [2], "matrix" : [0.42369306087493896, 0, 0, 0, 0, 0.42369306087493896, 0, 0, 0, 0, 0.42369306087493896, 0, 0.10691642761230469, 0.05126845836639404, 0.12868118286132812, 1], "name" : "palmera1Armature"}, {"matrix" : [0.1335061490535736, 0, 0, 0, 0, 0.1335061490535736, 0, 0, 0, 0, 0.1335061490535736, 0, -0.6328754425048828, 1.4171332120895386, -0.23876690864562988, 1], "mesh" : 2, "name" : "coco5"}, {"matrix" : [0.1335061490535736, 0, 0, 0, 0, 0.1335061490535736, 0, 0, 0, 0, 0.1335061490535736, 0, -0.5341992378234863, 1.5373872518539429, -0.0846867561340332, 1], "mesh" : 3, "name" : "coco4"}, {"matrix" : [0.1335061490535736, 0, 0, 0, 0, 0.1335061490535736, 0, 0, 0, 0, 0.1335061490535736, 0, -0.3817267417907715, 1.5226043462753296, -0.247344970703125, 1], "mesh" : 4, "name" : "coco3"}, {"matrix" : [0.1335061490535736, 0, 0, 0, 0, 0.1335061490535736, 0, 0, 0, 0, 0.1335061490535736, 0, 0.6207876205444336, 2.151573657989502, -0.43973827362060547, 1], "mesh" : 5, "name" : "coco2"}, {"matrix" : [0.1335061490535736, 0, 0, 0, 0, 0.1335061490535736, 0, 0, 0, 0, 0.1335061490535736, 0, 0.3301057815551758, 2.257444381713867, -0.2523641586303711, 1], "mesh" : 6, "name" : "coco1"}], "samplers" : [{"magFilter" : 9729, "minFilter" : 9987, "wrapS" : 10497, "wrapT" : 10497}], "scene" : 0, "scenes" : [{"nodes" : [1, 3, 4, 5, 6, 7, 8]}], "textures" : [{"sampler" : 0, "source" : 0, "name" : ""}]}