{"accessors" : [{"bufferView" : 0, "byteOffset" : 0, "componentType" : 5123, "count" : 20160, "type" : "SCALAR", "max" : [17721], "min" : [0]}, {"bufferView" : 1, "byteOffset" : 0, "componentType" : 5126, "count" : 17722, "type" : "VEC3", "max" : [3.568716526031494, 1.4303479194641113, 3.777099609375], "min" : [-1.9225994348526, -1.9187641143798828, -1], "name" : "POSITION"}, {"bufferView" : 1, "byteOffset" : 12, "componentType" : 5126, "count" : 17722, "type" : "VEC3", "max" : [0.9904426336288452, 0.9951428174972534, 0.9904426336288452], "min" : [-0.9904426336288452, -0.9951428174972534, -0.99044269323349], "name" : "NORMAL"}, {"bufferView" : 1, "byteOffset" : 24, "componentType" : 5126, "count" : 17722, "type" : "VEC2", "max" : [1.000000238418579, 1], "min" : [0, 0], "name" : "TEXCOORD_0"}, {"bufferView" : 0, "byteOffset" : 40320, "componentType" : 5123, "count" : 6, "type" : "SCALAR", "max" : [4], "min" : [0]}, {"bufferView" : 2, "byteOffset" : 0, "componentType" : 5126, "count" : 5, "type" : "VEC3", "max" : [1, 0, 1], "min" : [-1, 0, -1], "name" : "POSITION"}, {"bufferView" : 2, "byteOffset" : 12, "componentType" : 5126, "count" : 5, "type" : "VEC3", "max" : [0, 1.0000044107437134, -0], "min" : [0, 1.0000044107437134, -0], "name" : "NORMAL"}, {"bufferView" : 2, "byteOffset" : 24, "componentType" : 5126, "count" : 5, "type" : "VEC2", "max" : [1, 1], "min" : [0, 0], "name" : "TEXCOORD_0"}], "asset" : {"generator" : "Aspose.3D 22.12", "version" : "2.0"}, "buffers" : [{"uri" : "data:application/octet-stream;base64,", "byteLength" : 685656}], "bufferViews" : [{"buffer" : 0, "byteOffset" : 0, "byteLength" : 40332, "target" : 34963}, {"buffer" : 0, "byteOffset" : 40336, "byteLength" : 645120, "byteStride" : 32, "target" : 34962}, {"buffer" : 0, "byteOffset" : 685460, "byteLength" : 192, "byteStride" : 32, "target" : 34962}], "materials" : [{"name" : "Material.002", "pbrMetallicRoughness" : {"baseColorFactor" : [0.10896188020706177, 0.33432409167289734, 0.012415729463100433, 1], "metallicFactor" : 0, "roughnessFactor" : 0.5}, "emissiveFactor" : [0, 0, 0], "alphaMode" : "OPAQUE", "doubleSided" : true}, {"name" : "Material.003", "pbrMetallicRoughness" : {"baseColorFactor" : [1, 1, 1, 1], "metallicFactor" : 1, "roughnessFactor" : 1}, "emissiveFactor" : [0, 0, 0], "alphaMode" : "OPAQUE", "doubleSided" : true}], "meshes" : [{"primitives" : [{"attributes" : {"POSITION" : 1, "NORMAL" : 2, "TEXCOORD_0" : 3}, "indices" : 0, "material" : 0, "mode" : 4}]}, {"primitives" : [{"attributes" : {"POSITION" : 5, "NORMAL" : 6, "TEXCOORD_0" : 7}, "indices" : 4, "material" : 1, "mode" : 4}]}], "nodes" : [{"matrix" : [1.1066137552261353, 0, 0, 0, 0, 1.1066137552261353, 0, 0, 0, 0, 1.1066137552261353, 0, -0.865871787071228, 3.8098344802856445, -2.0564446449279785, 1], "mesh" : 0, "name" : "Sphere.002"}, {"matrix" : [100, 0, 0, 0, 0, 100, 0, 0, 0, 0, 100, 0, 0, 0, 0, 1], "mesh" : 1, "name" : "Plane"}], "scene" : 0, "scenes" : [{"nodes" : [0, 1]}]}