{"extensionsUsed" : ["KHR_materials_clearcoat"], "accessors" : [{"bufferView" : 0, "byteOffset" : 0, "componentType" : 5123, "count" : 30000, "type" : "SCALAR", "max" : [24350], "min" : [0]}, {"bufferView" : 1, "byteOffset" : 0, "componentType" : 5126, "count" : 24351, "type" : "VEC3", "max" : [2.403132677078247, 3.522961139678955, 2.4335360527038574], "min" : [-2.468418836593628, -2.7033963203430176, -2.9391629695892334], "name" : "POSITION"}, {"bufferView" : 1, "byteOffset" : 12, "componentType" : 5126, "count" : 24351, "type" : "VEC3", "max" : [0.9999903440475464, 0.9999120235443115, 0.999992847442627], "min" : [-0.9999884366989136, -1.0000044107437134, -0.9990859627723694], "name" : "NORMAL"}, {"bufferView" : 1, "byteOffset" : 24, "componentType" : 5126, "count" : 24351, "type" : "VEC2", "max" : [0.9849644899368286, 0.9851512908935547], "min" : [0.014848709106445312, 0.014848768711090088], "name" : "TEXCOORD_0"}, {"bufferView" : 0, "byteOffset" : 60000, "componentType" : 5123, "count" : 4848, "type" : "SCALAR", "max" : [3990], "min" : [0]}, {"bufferView" : 2, "byteOffset" : 0, "componentType" : 5126, "count" : 3991, "type" : "VEC3", "max" : [1.5747289657592773, 1.0115759372711182, 1.6702229976654053], "min" : [-1.505605936050415, -2.313159942626953, -2.4942336082458496], "name" : "POSITION"}, {"bufferView" : 2, "byteOffset" : 12, "componentType" : 5126, "count" : 3991, "type" : "VEC3", "max" : [0.9999083280563354, 1.0000044107437134, 0.9999901056289673], "min" : [-0.9999091625213623, -1.0000044107437134, -0.9999901056289673], "name" : "NORMAL"}, {"bufferView" : 2, "byteOffset" : 24, "componentType" : 5126, "count" : 3991, "type" : "VEC2", "max" : [0.9752399325370789, 0.9851512908935547], "min" : [0.01484881341457367, 0.02636277675628662], "name" : "TEXCOORD_0"}, {"bufferView" : 0, "byteOffset" : 69696, "componentType" : 5123, "count" : 924, "type" : "SCALAR", "max" : [754], "min" : [0]}, {"bufferView" : 3, "byteOffset" : 0, "componentType" : 5126, "count" : 755, "type" : "VEC3", "max" : [1.2344210147857666, -1.097777009010315, 1.2629728317260742], "min" : [-1.3115261793136597, -2.568458318710327, -0.7042894959449768], "name" : "POSITION"}, {"bufferView" : 3, "byteOffset" : 12, "componentType" : 5126, "count" : 755, "type" : "VEC3", "max" : [0.9772163033485413, 0.9988758563995361, 0.9773292541503906], "min" : [-0.9749085903167725, -0.9969975352287292, -0.5689107775688171], "name" : "NORMAL"}, {"bufferView" : 3, "byteOffset" : 24, "componentType" : 5126, "count" : 755, "type" : "VEC2", "max" : [0.8859758377075195, 0.9851511716842651], "min" : [0.014848709106445312, 0.2178838849067688], "name" : "TEXCOORD_0"}, {"bufferView" : 0, "byteOffset" : 71544, "componentType" : 5123, "count" : 240, "type" : "SCALAR", "max" : [199], "min" : [0]}, {"bufferView" : 4, "byteOffset" : 0, "componentType" : 5126, "count" : 200, "type" : "VEC3", "max" : [0.589800238609314, -1.8236103057861328, 0.834001898765564], "min" : [-0.6896045207977295, -2.4320414066314697, -1.2188407182693481], "name" : "POSITION"}, {"bufferView" : 4, "byteOffset" : 12, "componentType" : 5126, "count" : 200, "type" : "VEC3", "max" : [0.9953697323799133, 0.9998801946640015, 1.0000041723251343], "min" : [-0.9944746494293213, -0.9995830059051514, -0.9998432397842407], "name" : "NORMAL"}, {"bufferView" : 4, "byteOffset" : 24, "componentType" : 5126, "count" : 200, "type" : "VEC2", "max" : [0.875, 1], "min" : [0.125, 0], "name" : "TEXCOORD_0"}, {"bufferView" : 0, "byteOffset" : 72024, "componentType" : 5123, "count" : 1152, "type" : "SCALAR", "max" : [959], "min" : [0]}, {"bufferView" : 5, "byteOffset" : 0, "componentType" : 5126, "count" : 960, "type" : "VEC3", "max" : [1.992142915725708, 0.3439064025878906, 2.425506830215454], "min" : [-2.0306406021118164, -0.8949434757232666, 1.1772516965866089], "name" : "POSITION"}, {"bufferView" : 5, "byteOffset" : 12, "componentType" : 5126, "count" : 960, "type" : "VEC3", "max" : [0.9932755827903748, 0.9968077540397644, 0.9900784492492676], "min" : [-0.9932755827903748, -0.9968077540397644, -0.9900784492492676], "name" : "NORMAL"}, {"bufferView" : 5, "byteOffset" : 24, "componentType" : 5126, "count" : 960, "type" : "VEC2", "max" : [0.875, 1], "min" : [0.125, 0], "name" : "TEXCOORD_0"}], "asset" : {"generator" : "Aspose.3D 22.12", "version" : "2.0"}, "buffers" : [{"uri" : "data:application/octet-stream;base64,", "byteLength" : 1263600}], "bufferViews" : [{"buffer" : 0, "byteOffset" : 0, "byteLength" : 74328, "target" : 34963}, {"buffer" : 0, "byteOffset" : 74332, "byteLength" : 960000, "byteStride" : 32, "target" : 34962}, {"buffer" : 0, "byteOffset" : 1034336, "byteLength" : 155136, "byteStride" : 32, "target" : 34962}, {"buffer" : 0, "byteOffset" : 1189476, "byteLength" : 29568, "byteStride" : 32, "target" : 34962}, {"buffer" : 0, "byteOffset" : 1219048, "byteLength" : 7680, "byteStride" : 32, "target" : 34962}, {"buffer" : 0, "byteOffset" : 1226732, "byteLength" : 36864, "byteStride" : 32, "target" : 34962}], "images" : [{"uri" : "data:image/png;base64,"}, {"uri" : "data:image/png;base64,"}], "materials" : [{"name" : "body", "extensions" : {"KHR_materials_clearcoat" : {"clearcoatFactor" : 0.4848484992980957, "clearcoatRoughnessFactor" : 0.5496078133583069}}, "pbrMetallicRoughness" : {"baseColorFactor" : [1, 1, 1, 1], "baseColorTexture" : {"index" : 0, "texCoord" : 0}, "metallicFactor" : 0.02403843402862549, "roughnessFactor" : 0.8874714374542236}, "emissiveFactor" : [0, 0, 0], "alphaMode" : "OPAQUE", "doubleSided" : true}, {"name" : "teeths.001", "pbrMetallicRoughness" : {"baseColorFactor" : [0.800000011920929, 0.800000011920929, 0.800000011920929, 1], "metallicFactor" : 0, "roughnessFactor" : 0.5}, "emissiveFactor" : [0, 0, 0], "alphaMode" : "OPAQUE", "doubleSided" : true}, {"name" : "mouth.001", "pbrMetallicRoughness" : {"baseColorFactor" : [0.24762973189353943, 0, 0.06581352651119232, 1], "metallicFactor" : 0, "roughnessFactor" : 0.9504950642585754}, "emissiveFactor" : [0, 0, 0], "alphaMode" : "OPAQUE", "doubleSided" : true}, {"name" : "tongue", "pbrMetallicRoughness" : {"baseColorFactor" : [0.9402367472648621, 0.0746401771903038, 0.6626555919647217, 1], "metallicFactor" : 0, "roughnessFactor" : 0.9405940771102905}, "emissiveFactor" : [0, 0, 0], "alphaMode" : "OPAQUE", "doubleSided" : true}, {"name" : "eyes", "pbrMetallicRoughness" : {"baseColorFactor" : [1, 1, 1, 1], "baseColorTexture" : {"index" : 1, "texCoord" : 0}, "metallicFactor" : 0, "roughnessFactor" : 0.5}, "emissiveFactor" : [0, 0, 0], "alphaMode" : "OPAQUE", "doubleSided" : true}], "meshes" : [{"primitives" : [{"attributes" : {"POSITION" : 1, "NORMAL" : 2, "TEXCOORD_0" : 3}, "indices" : 0, "material" : 0, "mode" : 4}, {"attributes" : {"POSITION" : 5, "NORMAL" : 6, "TEXCOORD_0" : 7}, "indices" : 4, "material" : 1, "mode" : 4}, {"attributes" : {"POSITION" : 9, "NORMAL" : 10, "TEXCOORD_0" : 11}, "indices" : 8, "material" : 2, "mode" : 4}, {"attributes" : {"POSITION" : 13, "NORMAL" : 14, "TEXCOORD_0" : 15}, "indices" : 12, "material" : 3, "mode" : 4}, {"attributes" : {"POSITION" : 17, "NORMAL" : 18, "TEXCOORD_0" : 19}, "indices" : 16, "material" : 4, "mode" : 4}]}], "nodes" : [{"matrix" : [0.6077480912208557, 0, 0, 0, 0, 0.6077480912208557, 0, 0, 0, 0, 0.6077480912208557, 0, -0.03863587602972984, 5.33734130859375, 0.5019972920417786, 1], "mesh" : 0, "name" : "virus5.body.mesh"}], "samplers" : [{"magFilter" : 9729, "minFilter" : 9986, "wrapS" : 10497, "wrapT" : 10497}, {"magFilter" : 9729, "minFilter" : 9986, "wrapS" : 10497, "wrapT" : 10497}], "scene" : 0, "scenes" : [{"nodes" : [0]}], "textures" : [{"sampler" : 0, "source" : 0, "name" : ""}, {"sampler" : 1, "source" : 1, "name" : ""}]}